<?xml version="1.0" encoding="UTF-8"?>
<svg width="210px" height="210px" viewBox="0 0 210 210" version="1.1" xmlns="http://www.w3.org/2000/svg" xmlns:xlink="http://www.w3.org/1999/xlink">
    <!-- Generator: Sketch 52.2 (67145) - http://www.bohemiancoding.com/sketch -->
    <title>ico_bag</title>
    <desc>Created with Sketch.</desc>
    <g id="Landing-page" stroke="none" stroke-width="1" fill="none" fill-rule="evenodd">
        <g id="landingpage-CPC-Wedding-Dress-Dry-Cleaning-in-London" transform="translate(-168.000000, -4078.000000)">
            <g id="Group-49" transform="translate(0.000000, 3945.000000)">
                <g id="ico_bag" transform="translate(168.000000, 133.000000)">
                    <g id="Group-29" fill="#1FB6FF" fill-opacity="0.0558197464">
                        <circle id="Oval-3-Copy-2" cx="105" cy="105" r="105"></circle>
                    </g>
                    <g id="noun_1326012" transform="translate(73.000000, 55.000000)" fill="#2F353E" fill-rule="nonzero" stroke="#F3FBFF" stroke-width="0.5">
                        <path d="M55.8166667,15.2290015 L55.8166667,11.8594731 C49.9767738,11.8957729 42.5820883,13.1948605 36.6229302,15.1814295 L35.82117,15.4487075 L36.3485028,14.7882706 L40.946256,9.02999938 C42.8618965,6.63983788 43.068801,4.60329104 42.292467,2.97936072 C41.5161988,1.36140979 39.7983465,0.25 36.7333333,0.25 L21.2666667,0.25 C18.2022566,0.25 16.4868128,1.35925742 15.7036664,2.97936072 C14.9273311,4.59745153 15.1336133,6.63693738 17.0462076,9.03024543 L21.9460482,15.1596375 L21.1502916,14.8993987 C15.4604364,13.0386272 8.47984835,11.8890442 2.18333333,11.8592877 L2.18333333,15.2287865 C10.5662208,15.2640304 18.5790592,17.0674853 24.0547015,19.5889631 L24.7803169,19.9231016 L23.9936712,20.0622232 C10.3581731,22.4737178 0.25,34.38372 0.25,48.3695652 L0.25,75.4565217 C0.25,82.7867533 6.20877981,88.75 13.5333333,88.75 L44.4666667,88.75 C51.7912202,88.75 57.75,82.7867533 57.75,75.4565217 L57.75,48.3695652 C57.75,34.5370391 47.8636192,22.7115318 34.4319024,20.1312064 L33.6173436,19.974724 L34.3827048,19.6550132 C40.3795128,17.149994 48.6006425,15.271632 55.8166667,15.2290015 Z M18.8218891,4.58124228 C19.0590668,4.0807939 20.0286185,3.75 21.3295989,3.75 L36.6704011,3.75 C37.9718308,3.75 38.9416029,4.08102243 39.1778635,4.58072452 C39.4149632,5.0762955 39.0610258,6.05531168 38.2478802,7.08471674 L32.4947448,14.4291272 C30.5843826,16.8570252 27.4151924,16.8570252 25.5126909,14.4288284 L19.7527481,7.08551549 C18.9392574,6.05567026 18.5852832,5.07697703 18.8218891,4.58124217 Z M54.25,75.3125 C54.25,80.7924578 49.8244186,85.25 44.3846154,85.25 L13.6153846,85.25 C8.17558139,85.25 3.75,80.7924578 3.75,75.3125 L3.75,48.1875 C3.75,34.1618452 15.0768935,22.75 29,22.75 C42.9231065,22.75 54.25,34.1618452 54.25,48.1875 L54.25,75.3125 Z" id="Shape"></path>
                    </g>
                    <path d="M76,111.032019 L76,124.798005 L129,114.991822 L129,101.202515 L76,111.032019 Z" id="Path" stroke="#2F353E" stroke-width="2"></path>
                </g>
            </g>
        </g>
    </g>
</svg>