<?xml version="1.0" encoding="UTF-8"?>
<svg width="210px" height="210px" viewBox="0 0 210 210" version="1.1" xmlns="http://www.w3.org/2000/svg" xmlns:xlink="http://www.w3.org/1999/xlink">
    <!-- Generator: Sketch 52.2 (67145) - http://www.bohemiancoding.com/sketch -->
    <title>ico_shirt</title>
    <desc>Created with Sketch.</desc>
    <g id="Landing-page" stroke="none" stroke-width="1" fill="none" fill-rule="evenodd">
        <g id="landingpage-CPC-Wedding-Dress-Dry-Cleaning-in-London" transform="translate(-616.000000, -4078.000000)">
            <g id="Group-49" transform="translate(0.000000, 3945.000000)">
                <g id="ico_shirt" transform="translate(616.000000, 133.000000)">
                    <circle id="Oval-3" fill-opacity="0.0558197464" fill="#1FB6FF" cx="105" cy="105" r="105"></circle>
                    <g id="Page-1" transform="translate(61.000000, 53.000000)" fill="#2F353E">
                        <path d="M54,19.5012 L54.003519,19.5012 L54.003519,18 L54,19.5012 Z M55.06173,16.93827 L54,17.99649 L52.64298,17.370711 L45.00351,33.919011 L37.36755,17.370711 C36.928098,16.424991 35.68005,16.199991 34.94529,16.938288 L30.70899,21.174588 C20.06739,24.416028 16.24959,27.464058 16.50969,30.128868 C16.632738,30.814416 17.01594,31.250358 17.52921,31.422618 C18.56979,31.767147 19.54719,33.528438 20.20815,36.277668 C20.510496,37.532718 20.728458,38.893248 20.869092,40.257378 C20.918313,40.735503 20.953467,41.178438 20.978073,41.575698 C20.99565,41.807727 21.002679,41.972967 21.006198,42.053823 L21.006198,88.4983212 C21.006198,89.3280129 21.677679,89.9995209 22.503888,89.9995209 L67.500288,89.9995209 C68.32998,89.9995209 69.001488,89.3280399 69.001488,88.4983212 L69.001488,42.000723 C69.001488,41.972598 69.008517,41.807367 69.026094,41.575329 C69.0507,41.17806 69.085863,40.735098 69.138594,40.257009 C69.279219,38.892969 69.493671,37.532439 69.796017,36.277299 C70.456959,33.528069 71.437797,31.766769 72.474957,31.422249 C72.988236,31.24998 73.371438,30.814047 73.473417,30.283209 C73.754667,27.463689 69.936687,24.415659 59.294817,21.174309 L55.06173,16.93827 Z M24.00453,87.0014691 L24.00453,42.00147 C24.001011,41.836239 23.990472,41.646393 23.972886,41.38272 C23.944761,40.946778 23.906097,40.46517 23.849838,39.9483 C23.698665,38.46123 23.463117,36.97758 23.125617,35.57484 C22.443588,32.74479 21.459177,30.60027 19.972107,29.40138 C20.137338,29.236149 20.341251,29.053332 20.590857,28.852938 C22.492827,27.351738 26.138547,25.681878 31.935357,23.934618 C32.174415,23.864301 32.388876,23.734224 32.564655,23.561964 L35.542395,20.580714 L43.642395,38.127114 C44.17677,39.290814 45.829125,39.290814 46.366965,38.127114 L54.463455,20.584314 L57.437685,23.562054 C57.613464,23.734323 57.831435,23.8644 58.066983,23.934708 C63.864243,25.681968 67.509783,27.351918 69.411483,28.853028 C69.661089,29.053422 69.865002,29.23623 70.030233,29.40147 C68.543163,30.60027 67.558743,32.74479 66.876723,35.57493 C66.542742,36.97767 66.307194,38.46123 66.152502,39.94839 C66.099771,40.465188 66.057579,40.94685 66.029454,41.38281 C66.011877,41.646483 66.004848,41.836329 66.001329,41.94531 L65.997819,87.0011091 L24.00453,87.0014691 Z" id="Fill-1"></path>
                        <path d="M23.9733,41.382 C23.945175,40.946058 23.902983,40.46445 23.850252,39.94758 C23.69556,38.46402 23.460021,36.97686 23.122521,35.57763 C22.250646,31.96359 20.883051,29.47095 18.601461,28.63071 C18.000288,28.345941 17.251461,28.525239 16.819011,29.073681 L0.32020974,50.072481 C-0.20713626,50.743962 -0.066511269,51.721281 0.62958474,52.220511 L11.127186,59.719311 C11.587734,60.049782 12.195936,60.091965 12.695166,59.828292 L23.199966,54.326322 C23.695668,54.066168 24.005043,53.556399 24.005043,52.997382 L24.005043,42.000282 C23.998014,41.835051 23.990976,41.645205 23.973399,41.381532 L23.9733,41.382 Z M21.00258,52.0902 L12.1221,56.7414 L3.6494091,50.69097 L18.32391,32.01597 C19.083285,32.824566 19.73016,34.29765 20.20833,36.28044 C20.510676,37.539 20.725128,38.89602 20.865753,40.25664 C20.918484,40.734765 20.953647,41.1777 20.978253,41.57496 C20.992311,41.785902 20.999349,41.940585 21.002859,42.028479 L21.00258,52.0902 Z" id="Fill-2"></path>
                        <path d="M69.0219,41.5755 C69.046515,41.178231 69.081669,40.735269 69.1344,40.25718 C69.275025,38.89665 69.489477,37.53963 69.791823,36.28098 C70.276977,34.27002 70.934373,32.78295 71.662113,31.99896 L86.350113,50.69196 L77.877423,56.74239 L68.996943,52.09119 L68.996943,42.02919 C69.000462,41.941296 69.007491,41.786613 69.021558,41.575671 L69.0219,41.5755 Z M65.99493,52.9974 C65.99493,53.556381 66.304305,54.06615 66.800007,54.32634 L77.304807,59.82831 C77.804028,60.091983 78.412257,60.049791 78.872787,59.719329 L89.370387,52.220529 C90.06651,51.721308 90.20709,50.743989 89.679762,50.072499 L73.180962,29.073699 C72.748539,28.525257 71.999712,28.345968 71.366922,28.637757 L71.286066,28.67643 C69.116886,29.470959 67.749336,31.9635 66.877506,35.57763 C66.540006,36.97686 66.304458,38.46393 66.149775,39.94758 C66.097035,40.464378 66.054852,40.94604 66.026727,41.382 C66.00915,41.645673 66.002112,41.835519 65.995083,41.9445 L65.99493,52.9974 Z" id="Fill-3"></path>
                        <path d="M36.819,32.4144 L33.24708,22.8798 L35.5428,20.58057 L40.21857,30.71277 L36.819,32.4144 Z M42.86232,32.744871 C43.586541,32.382765 43.89237,31.510881 43.551378,30.776121 L37.363878,17.370621 C36.927936,16.424901 35.679888,16.199901 34.941618,16.938198 L30.441618,21.438198 C30.026772,21.856554 29.893176,22.475268 30.097089,23.027238 L34.597089,35.026038 C34.909983,35.85924 35.873289,36.238968 36.671319,35.841663 L42.86232,32.744871 Z" id="Fill-4"></path>
                        <path d="M47.1411,32.7447 L53.33211,35.84196 C54.130158,36.239229 55.09692,35.859537 55.40985,35.026335 L59.90634,23.027535 C60.110244,22.475583 59.976657,21.856815 59.561811,21.438495 L55.061811,16.938495 C54.323532,16.200216 53.075511,16.425216 52.639551,17.370918 L46.452051,30.776418 C46.111032,31.511187 46.416897,32.383098 47.141109,32.745168 L47.1411,32.7447 Z M54.46062,20.5803 L56.75634,22.87953 L53.18442,32.41413 L49.78485,30.71259 L54.46062,20.5803 Z" id="Fill-5"></path>
                        <path d="M43.4988,13.5 C43.4988,14.329692 44.170281,15.0012 45,15.0012 C45.829719,15.0012 46.5012,14.329719 46.5012,13.5 L46.5012,10.5012 C46.5012,9.671508 45.829719,9 45,9 C43.34418,9 42.0012,7.65702 42.0012,6.0012 C42.0012,4.34178 43.34418,2.99889 45,2.99889 C46.65582,2.99889 47.9988,4.34187 47.9988,6.0012 C47.9988,6.827373 48.670281,7.49889 49.5,7.49889 C50.329719,7.49889 51.0012,6.827409 51.0012,6.0012 C51.0012,2.68596 48.31524,0 45,0 C41.68476,0 38.9988,2.68596 38.9988,6.0012 C38.9988,8.79615 40.9113,11.14452 43.4988,11.80899 L43.4988,13.5 Z" id="Fill-6"></path>
                        <path d="M39.4875,29.1267 L43.64298,38.1267 C44.177355,39.2904 45.82971,39.2904 46.36404,38.1267 L50.51952,29.1267 C50.976549,28.13526 50.248818,26.99973 49.15548,26.99973 L40.85154,26.99973 C39.75462,26.99973 39.03048,28.13526 39.4875,29.1267 Z M46.81053,29.998575 L45.00351,33.918525 L43.19298,29.998575 L46.81053,29.998575 Z" id="Fill-7"></path>
                        <path d="M40.8519,29.9988 L49.15935,29.9988 C49.742946,29.9988 50.27382,29.657781 50.51988,29.126925 L55.04094,19.335825 C55.360863,18.639729 55.107738,17.813565 54.450315,17.419815 L45.770265,12.213135 C45.295659,11.928366 44.701515,11.928366 44.226945,12.213135 L35.557425,17.416215 C34.900002,17.809965 34.646895,18.636165 34.9668,19.332225 L39.48786,29.126925 C39.733956,29.657781 40.264812,29.9988 40.8519,29.9988 Z M38.25387,19.2969 L45.00036,15.2469 L51.75387,19.30041 L48.19959,26.99964 L41.81166,26.99964 L38.25387,19.2969 Z" id="Fill-8"></path>
                        <path d="M16.5096,30.1293 C16.632648,30.814848 17.01585,31.25079 17.52912,31.42305 C18.5697,31.767579 19.5471,33.52887 20.20806,36.2781 C20.510406,37.53315 20.728368,38.89368 20.869002,40.25781 C20.918223,40.735935 20.953377,41.17887 20.977983,41.57613 C20.99556,41.808159 21.002589,41.973399 21.006108,42.054255 L21.006108,88.498755 C21.006108,89.3284473 21.677589,89.9999553 22.503798,89.9999553 L45.000198,89.9999553 C45.82989,89.9999553 46.501398,89.3284743 46.501398,88.498755 L46.501398,37.490355 C46.501398,37.272384 46.452177,37.057932 46.360773,36.861057 L37.367793,17.370657 C36.928341,16.424937 35.680293,16.199937 34.945533,16.938234 L30.709233,21.174534 C20.067633,24.415974 16.249833,27.464004 16.509933,30.128814 L16.5096,30.1293 Z M24.00489,87.0012027 L24.00489,42.0012 C24.001371,41.835969 23.990832,41.646123 23.973246,41.38245 C23.945121,40.946508 23.906457,40.4649 23.850198,39.94803 C23.699025,38.46096 23.463477,36.97731 23.125977,35.57457 C22.443948,32.74452 21.459537,30.6 19.972467,29.40111 C20.137698,29.235879 20.341611,29.053062 20.591217,28.852668 C22.493187,27.351468 26.138907,25.681608 31.935717,23.934348 C32.174775,23.86404 32.389236,23.733954 32.565015,23.561694 L35.542755,20.580444 L43.498575,37.820844 L43.498575,87.0013476 L24.00489,87.0012027 Z" id="Fill-9"></path>
                    </g>
                </g>
            </g>
        </g>
    </g>
</svg>