<?xml version="1.0" encoding="UTF-8"?>
<svg width="210px" height="210px" viewBox="0 0 210 210" version="1.1" xmlns="http://www.w3.org/2000/svg" xmlns:xlink="http://www.w3.org/1999/xlink">
    <!-- Generator: Sketch 52.2 (67145) - http://www.bohemiancoding.com/sketch -->
    <title>ico_bed</title>
    <desc>Created with Sketch.</desc>
    <g id="Landing-page" stroke="none" stroke-width="1" fill="none" fill-rule="evenodd">
        <g id="landingpage-CPC-Wedding-Dress-Dry-Cleaning-in-London" transform="translate(-1064.000000, -4078.000000)">
            <g id="Group-49" transform="translate(0.000000, 3945.000000)">
                <g id="ico_bed" transform="translate(1064.000000, 133.000000)">
                    <g id="Group-27" fill="#1FB6FF" fill-opacity="0.0558197464">
                        <circle id="Oval-3-Copy" cx="105" cy="105" r="105"></circle>
                    </g>
                    <g id="noun_311741" transform="translate(61.000000, 75.000000)" fill="#2F353E" fill-rule="nonzero">
                        <path d="M1.66486486,56.5932203 L7.96756757,56.5932203 L7.96756757,65.6101695 C7.96756757,67.5084746 9.51351351,69.0508475 11.4162162,69.0508475 L13.0810811,69.0508475 C14.9837838,69.0508475 16.5297297,67.5084746 16.5297297,65.6101695 L16.5297297,56.5932203 L71.827027,56.5932203 L71.827027,65.6101695 C71.827027,67.5084746 73.372973,69.0508475 75.2756757,69.0508475 L76.9405405,69.0508475 C78.8432432,69.0508475 80.3891892,67.5084746 80.3891892,65.6101695 L80.3891892,56.5932203 L86.3351351,56.5932203 C87.0486486,56.5932203 87.5243243,56.1186441 87.5243243,55.4067797 L87.5243243,37.3728814 C87.5243243,36.6610169 87.0486486,36.1864407 86.3351351,36.1864407 L85.8594595,36.1864407 C86.9297297,35 87.5243243,33.4576271 87.5243243,31.6779661 C87.5243243,28.9491525 85.8594595,26.5762712 83.4810811,25.5084746 L83.4810811,6.28813559 C83.4810811,3.20338983 80.9837838,0.711864407 77.8918919,0.711864407 L11.2972973,0.711864407 C8.20540541,0.711864407 5.70810811,3.20338983 5.70810811,6.28813559 L5.70810811,25.0338983 C2.73513514,25.7457627 0.475675676,28.4745763 0.475675676,31.6779661 C0.475675676,33.3389831 1.07027027,35 2.14054054,36.1864407 L1.66486486,36.1864407 C0.951351351,36.1864407 0.475675676,36.6610169 0.475675676,37.3728814 L0.475675676,55.4067797 C0.475675676,56.1186441 1.07027027,56.5932203 1.66486486,56.5932203 Z M14.1513514,65.6101695 C14.1513514,66.2033898 13.6756757,66.6779661 13.0810811,66.6779661 L11.4162162,66.6779661 C10.8216216,66.6779661 10.3459459,66.2033898 10.3459459,65.6101695 L10.3459459,56.7118644 L14.1513514,56.7118644 L14.1513514,65.6101695 Z M78.0108108,65.6101695 C78.0108108,66.2033898 77.5351351,66.6779661 76.9405405,66.6779661 L75.2756757,66.6779661 C74.6810811,66.6779661 74.2054054,66.2033898 74.2054054,65.6101695 L74.2054054,56.7118644 L78.0108108,56.7118644 L78.0108108,65.6101695 Z M2.85405405,31.6779661 C2.85405405,29.1864407 4.87567568,27.1694915 7.37297297,27.1694915 L12.2486486,27.1694915 L44,27.1694915 L45.0702703,27.1694915 L76.8216216,27.1694915 L80.627027,27.1694915 C83.1243243,27.1694915 85.1459459,29.1864407 85.1459459,31.6779661 C85.1459459,33.220339 84.3135135,34.5254237 83.2432432,35.3559322 C83.0054054,35.1186441 82.7675676,35 82.4108108,35 C81.8162162,35 81.2216216,35.4745763 81.2216216,36.1864407 C81.1027027,36.1864407 80.9837838,36.1864407 80.8648649,36.1864407 L81.2216216,36.1864407 C81.2216216,36.1864407 81.2216216,36.1864407 81.2216216,36.1864407 C81.2216216,36.5423729 81.1027027,37.0169492 80.8648649,37.3728814 C80.8648649,37.3728814 80.8648649,37.3728814 80.8648649,37.3728814 C80.627027,37.8474576 80.3891892,38.2033898 79.9135135,38.559322 C78.7243243,39.6271186 76.9405405,40.220339 74.9189189,40.220339 C72.8972973,40.220339 71.1135135,39.5084746 69.9243243,38.559322 C69.5675676,38.2033898 69.2108108,37.8474576 68.972973,37.3728814 C68.7351351,37.0169492 68.6162162,36.5423729 68.6162162,36.1864407 C68.6162162,36.1864407 68.6162162,36.1864407 68.6162162,36.1864407 C68.6162162,35.4745763 68.1405405,35 67.427027,35 C66.7135135,35 66.2378378,35.4745763 66.2378378,36.1864407 C66.2378378,36.1864407 66.2378378,36.1864407 66.2378378,36.1864407 L7.37297297,36.1864407 C4.87567568,36.1864407 2.85405405,34.1694915 2.85405405,31.6779661 Z M46.3783784,24.9152542 C46.972973,21.3559322 50.0648649,18.5084746 53.8702703,18.5084746 L68.1405405,18.5084746 C71.9459459,18.5084746 75.0378378,21.2372881 75.6324324,24.9152542 L46.3783784,24.9152542 Z M13.5567568,24.9152542 C14.1513514,21.3559322 17.2432432,18.5084746 21.0486486,18.5084746 L35.3189189,18.5084746 C39.1243243,18.5084746 42.2162162,21.2372881 42.8108108,24.9152542 L13.5567568,24.9152542 Z M2.85405405,38.559322 L7.37297297,38.559322 L67.0702703,38.559322 C68.3783784,40.9322034 71.3513514,42.5932203 75.0378378,42.5932203 C78.6054054,42.5932203 81.6972973,40.9322034 83.0054054,38.559322 L85.2648649,38.559322 L85.2648649,54.220339 L2.85405405,54.220339 L2.85405405,38.559322 Z M8.08648649,6.28813559 C8.08648649,4.50847458 9.51351351,3.08474576 11.2972973,3.08474576 L78.0108108,3.08474576 C79.7945946,3.08474576 81.2216216,4.50847458 81.2216216,6.28813559 L81.2216216,24.9152542 L80.7459459,24.9152542 L78.0108108,24.9152542 C77.4162162,20.0508475 73.2540541,16.1355932 68.1405405,16.1355932 L53.8702703,16.1355932 C49.5891892,16.1355932 46.0216216,18.8644068 44.5945946,22.5423729 C43.1675676,18.7457627 39.4810811,16.1355932 35.3189189,16.1355932 L21.0486486,16.1355932 C15.9351351,16.1355932 11.772973,19.9322034 11.1783784,24.9152542 L8.20540541,24.9152542 L8.20540541,6.28813559 L8.08648649,6.28813559 Z" id="Shape"></path>
                    </g>
                </g>
            </g>
        </g>
    </g>
</svg>