<svg xmlns="http://www.w3.org/2000/svg" width="47" height="42" viewBox="0 0 47 42">
    <path fill="#8C939C" fill-rule="nonzero" d="M12.474 0C9.266 0 6.057 1.277 3.63 3.805c-4.848 5.051-4.832 13.164 0 18.224 6.288 6.876 12.389 12.977 18.586 19.455.649.69 1.882.69 2.53 0 6.21-6.47 12.405-12.96 18.614-19.428 4.853-5.056 4.853-13.168 0-18.224a12.21 12.21 0 0 0-17.688 0l-2.177 2.244-2.177-2.27C18.951 1.223 15.412-.039 12.474 0zm0 3.449c2.28 0 4.563.938 6.34 2.79l3.43 3.585c.647.673 1.855.673 2.503 0l3.429-3.584c3.555-3.705 9.125-3.705 12.68 0 3.556 3.704 3.556 9.676 0 13.38-5.79 6.033-11.57 12.081-17.36 18.114L6.133 19.62c-3.554-3.71-3.556-9.676 0-13.38 1.777-1.853 4.061-2.791 6.34-2.791z"/>
</svg>
