<svg xmlns="http://www.w3.org/2000/svg" width="139" height="158" viewBox="0 0 139 158">
    <g fill="none" fill-rule="nonzero">
        <g fill="#8C939C">
            <path d="M53.038 64.625H14.931a2.589 2.589 0 0 0-2.585 2.586v36.34c0 1.062.648 2.012 1.635 2.407l19.053 7.536c.302.123.63.179.95.179.32 0 .648-.062.95-.18l19.053-7.535a2.587 2.587 0 0 0 1.635-2.407v-36.34a2.593 2.593 0 0 0-2.585-2.586h.001zm-2.585 37.166l-16.469 6.518-16.468-6.511V69.803h32.937v31.989zM80.434 62.707c0 5.616-8.423 5.616-8.423 0s8.423-5.616 8.423 0M80.434 95.503c0 5.61-8.423 5.61-8.423 0 0-5.616 8.423-5.616 8.423 0M80.434 129.628c0 5.61-8.423 5.61-8.423 0 0-5.616 8.423-5.616 8.423 0"/>
            <path d="M131.497 25.212c-.389-4.16-3.9-7.425-8.157-7.425h-13.765l-6.781-16.195a3.33 3.33 0 0 0-.247-.463c-.012-.018-.025-.03-.037-.049-.037-.05-.074-.105-.111-.148a.74.74 0 0 0-.068-.074c-.037-.037-.068-.074-.105-.111-.025-.025-.055-.05-.08-.074-.037-.031-.074-.068-.111-.099-.025-.025-.056-.043-.08-.062-.044-.03-.08-.061-.124-.086-.024-.019-.055-.031-.08-.05-.043-.024-.092-.055-.142-.08-.025-.012-.055-.024-.08-.043-.05-.025-.099-.05-.154-.068-.013-.006-.019-.006-.031-.012l-.056-.019a1.489 1.489 0 0 0-.154-.05c-.03-.011-.068-.018-.099-.024-.049-.012-.098-.024-.148-.03l-.117-.02-.136-.018c-.043-.006-.092-.006-.135-.006-.037 0-.062-.006-.087-.006H31.294c-.024 0-.055.006-.08.006-.043 0-.086.006-.13.006a7.492 7.492 0 0 0-.246.037c-.05.013-.099.019-.148.031-.031.006-.062.019-.099.025-.056.012-.105.03-.154.05-.019.005-.037.012-.056.018-.012.006-.018.006-.03.012-.05.019-.106.043-.155.068-.025.012-.055.025-.086.043a.982.982 0 0 0-.136.08.327.327 0 0 0-.093.05c-.043.025-.08.055-.123.086-.03.019-.055.043-.086.062-.037.03-.074.062-.111.099-.025.024-.056.05-.08.074-.038.037-.068.074-.105.11-.025.026-.05.05-.068.075l-.111.148-.037.056a2.369 2.369 0 0 0-.247.462l-6.781 16.19H8.274c-4.517 0-8.194 3.678-8.194 8.195V142.41c0 4.259 3.264 7.77 7.422 8.16.39 4.16 3.9 7.424 8.157 7.424h115.067c4.523 0 8.194-3.678 8.194-8.196V33.371c0-4.258-3.264-7.77-7.423-8.16v.001zm-21.62-1.45c.308-.216.555-.494.734-.803h12.729a3.031 3.031 0 0 1 3.03 3.03v116.428a3 3 0 0 1-.92 2.172l-.013.013a2.98 2.98 0 0 1-1.042.654c-.013.006-.025.006-.037.012-.321.117-.667.173-1.018.173H68.389V29.409l7.57 14.69a2.59 2.59 0 0 0 1.685 1.326c.728.179 1.493.03 2.104-.401l30.128-21.262zm-4.678-3.03L79.192 39.085l-9.816-19.053 29.69-13.96L105.2 20.73zM88.837 5.171L65.853 15.979 42.869 5.172h45.968zm-56.197.901l29.69 13.96-9.816 19.054-26.007-18.355L32.64 6.073zM8.274 145.44a3.031 3.031 0 0 1-3.03-3.03V25.983a3.031 3.031 0 0 1 3.03-3.03h12.815c.18.308.432.585.74.801l30.129 21.262c.61.433 1.376.574 2.104.402a2.59 2.59 0 0 0 1.684-1.327l7.478-14.51V145.44H8.274zm125.476 4.363a3.031 3.031 0 0 1-3.03 3.03l-115.06-.005a3.023 3.023 0 0 1-2.913-2.216h110.594c.98 0 1.937-.173 2.844-.506l.056-.018a8.1 8.1 0 0 0 2.8-1.784l.007-.006a8.12 8.12 0 0 0 2.486-5.882l.007-111.957a3.029 3.029 0 0 1 2.215 2.913v116.432h-.006z"/>
        </g>
        <path fill="#1FB6FF" d="M48.758 68.651l-32.143 34.045c-.82.868-.82 2.083 0 2.782.327.346.82.522 1.313.522.494 0 .987-.176 1.314-.522l32.143-33.875c.82-.868.82-2.083 0-2.951-.82-.87-1.967-.87-2.627 0zM36.36 71.644c-.853-.859-2.046-.859-2.732 0L19.64 85.731c-.853.86-.853 2.06 0 2.752.34.343.853.517 1.366.517.513 0 1.026-.174 1.366-.517L36.36 74.396c.853-.691.853-2.06 0-2.752zM45.628 87.644L31.64 101.731c-.853.86-.853 2.06 0 2.752.34.343.853.517 1.366.517.513 0 1.026-.174 1.366-.517L48.36 90.396c.853-.859.853-2.06 0-2.752-.686-.859-1.88-.859-2.732 0z"/>
    </g>
</svg>
