<svg xmlns="http://www.w3.org/2000/svg" width="119" height="161" viewBox="0 0 119 161">
    <g fill="none" fill-rule="nonzero">
        <path fill="#8C939C" d="M116.55 156.09H2.45l2.45 2.455V2.455L2.45 4.91H116.55l-2.45-2.455v156.09c0 1.34 1.113 2.455 2.45 2.455 1.337 0 2.45-1.115 2.45-2.455V2.455C119 1.115 117.887 0 116.55 0H2.45C1.113 0 0 1.115 0 2.455v156.09C0 159.885 1.113 161 2.45 161H116.55c1.337 0 2.45-1.115 2.45-2.455s-1.113-2.455-2.45-2.455z"/>
        <path fill="#8C939C" d="M2.45 28H116.55c1.337 0 2.45-1.136 2.45-2.5s-1.113-2.5-2.45-2.5H2.45C1.113 23 0 24.136 0 25.5S1.113 28 2.45 28z"/>
        <path fill="#1FB6FF" d="M93.319 80.139c-3.163-2.97-6.823-5.775-11.082-6.786-3.007-.715-5.974-.31-8.787.914-1.857.805-3.471 2.021-5.228 3.005-1.803 1.01-3.431 2.276-5.2 3.334-.512.31-1.037.585-1.575.846-.141.069-.282.13-.424.193.612-.276.108-.049-.02 0a14.433 14.433 0 0 1-3.082.825c.64-.097.014-.014-.1 0-.189.02-.377.027-.566.04a15.356 15.356 0 0 1-2.637-.082c-.72-.075.478.083-.256-.034-.228-.034-.457-.083-.68-.124-1.083-.213-2.146-.53-3.188-.894-2.288-.804-4.38-2.076-6.655-2.963-3.337-1.313-7.118-1.705-10.576-.674-2.483.743-4.744 2.248-6.513 4.167-.942 1.017-1.87 2.207-2.463 3.486-.551 1.182-.33 2.585.848 3.293 1.036.619 2.671.323 3.223-.866.121-.255.262-.502.404-.743.154-.261.323-.509.49-.756.122-.172.552-.75.014-.034.148-.193.296-.379.451-.564a14.685 14.685 0 0 1 1.494-1.52c.094-.082.195-.165.296-.247.316-.262-.471.357.047-.035a11.837 11.837 0 0 1 2.213-1.292c-.666.302.39-.13.592-.2.31-.103.62-.185.936-.26.175-.042 1.23-.214.545-.125a13.27 13.27 0 0 1 2.395-.068c.202.013.397.034.592.048.673.068-.498-.083.195.027a17.808 17.808 0 0 1 2.624.66c.236.076.464.158.7.248.161.062.316.124.477.185.263.11.317.131.162.062 2.355 1.018 4.575 2.27 7.024 3.074a21.952 21.952 0 0 0 6.062 1.072c3.142.097 6.197-.811 8.928-2.351 1.837-1.031 3.445-2.44 5.316-3.41 1.756-.915 3.323-2.146 5.127-2.984.14-.062.598-.255-.068.027.128-.055.25-.103.377-.151.256-.103.518-.186.78-.268.27-.083.546-.158.821-.22.209-.048 1.306-.207.525-.11a10.48 10.48 0 0 1 1.857-.048c.162.007.33.027.491.04.579.056-.545-.089.047.008.41.069.821.165 1.225.275.31.082.612.185.915.289.128.04 1.023.405.579.213.767.337 1.507.742 2.22 1.175 1.77 1.073 3.243 2.31 4.757 3.74.942.888 2.395.956 3.33 0 .902-.934.962-2.55.02-3.437z"/>
        <path fill="#8C939C" d="M99.5 16c1.364 0 2.5-1.136 2.5-2.5s-1.136-2.5-2.5-2.5a2.521 2.521 0 0 0-2.5 2.5c0 1.364 1.143 2.5 2.5 2.5zM59.006 49c-8.432.03-16.644 2.974-23.303 8.564-6.12 5.141-10.593 12.576-12.11 20.82-1.57 8.525.015 17.44 4.307 24.786 4.32 7.39 11.07 12.756 18.665 15.618 15.765 5.933 34.472-.336 43.555-15.618 4.355-7.33 5.809-16.268 4.307-24.787-1.454-8.227-6.024-15.707-12.11-20.82C75.65 51.975 67.44 49.03 59.008 49c-1.322-.007-2.423 1.196-2.423 2.616 0 1.427 1.1 2.608 2.423 2.615 4.12.015 7.567.643 11.604 2.197 1.08.418 1.398.568 2.257.994a33.818 33.818 0 0 1 6.141 3.96c.602.486-.36-.306.235.195a33.246 33.246 0 0 1 4.687 4.925c.146.186.284.373.43.56.463.62-.277-.396.173.231.27.381.533.777.782 1.173.554.86 1.06 1.75 1.53 2.66.436.838.83 1.704 1.198 2.586.304.725-.173-.47.104.262l.249.672a32.652 32.652 0 0 1 1.219 4.416c.096.48.18.957.262 1.443.042.24.07.486.104.725-.076-.568.049.433.056.53a33.546 33.546 0 0 1-.056 6.98c-.09.807.076-.523-.034.284-.07.486-.153.964-.243 1.45a33.25 33.25 0 0 1-1.64 5.784c.193-.516-.09.216-.111.261-.09.217-.187.441-.284.658a34.08 34.08 0 0 1-2.098 3.976c-.25.403-.505.791-.768 1.187-.132.195-.27.389-.402.583.29-.41-.263.344-.318.419a33.79 33.79 0 0 1-5.013 5.268c.38-.329-.215.172-.235.187a32.843 32.843 0 0 1-3.067 2.182c-.804.508-1.628.971-2.465 1.412-1.087.568-1.323.665-2.458 1.121a32.932 32.932 0 0 1-5.788 1.711c-3.35.688-8.26.703-11.597.09a33.227 33.227 0 0 1-5.822-1.636 24.979 24.979 0 0 1-2.264-.972c-.921-.448-1.821-.949-2.7-1.48a32.9 32.9 0 0 1-2.354-1.576 20.837 20.837 0 0 1-2.07-1.667 34.247 34.247 0 0 1-4.016-4.274 30.23 30.23 0 0 1-.43-.56c-.02-.03-.484-.658-.18-.232-.276-.381-.532-.777-.795-1.166a34.032 34.032 0 0 1-1.551-2.645 30.743 30.743 0 0 1-1.212-2.578c-.02-.045-.311-.778-.11-.262-.09-.224-.167-.448-.25-.673a24.951 24.951 0 0 1-.526-1.591c-.284-.92-.52-1.86-.72-2.81a34.795 34.795 0 0 1-.27-1.435c-.042-.239-.076-.486-.11-.725-.042-.314-.042-.321-.008-.037-.02-.164-.034-.329-.055-.493a34.151 34.151 0 0 1 0-6.98c.007-.052.104-.867.028-.284a33.106 33.106 0 0 1 1.834-7.256c.277-.74-.194.464.104-.261.09-.224.187-.441.277-.658a32.57 32.57 0 0 1 3.233-5.754c.173-.239.18-.254.035-.045.09-.127.187-.254.277-.38a33.792 33.792 0 0 1 4.978-5.299c.588-.508-.367.299.235-.194.18-.15.367-.292.554-.441a32.924 32.924 0 0 1 2.506-1.764c.796-.515 1.62-.986 2.458-1.427 1.108-.59 1.406-.717 2.444-1.143 1.946-.8 3.967-1.383 6.01-1.801 1.232-.254 1.523-.284 2.776-.411a36.664 36.664 0 0 1 3.268-.157c1.322-.008 2.423-1.188 2.423-2.616-.028-1.434-1.129-2.637-2.451-2.63zM2.45 141H116.55c1.337 0 2.45-1.136 2.45-2.5s-1.113-2.5-2.45-2.5H2.45C1.113 136 0 137.136 0 138.5s1.113 2.5 2.45 2.5z"/>
        <path fill="#1FB6FF" d="M53.5 60c-3.605.102-6.397 2.893-6.498 6.5-.1 3.605 3.04 6.397 6.498 6.498 3.605.1 6.397-3.041 6.498-6.499.1-3.606-3.04-6.404-6.498-6.498-1.285-.034-2.354 1.096-2.354 2.354 0 1.312 1.07 2.321 2.354 2.355.29.02.31.013.067-.027.222.034.444.1.66.168-.438-.134.181.108.242.141.571.33-.27-.275.222.169.04.033.47.565.201.188.128.182.23.377.33.572-.209-.417.04.228.054.282.168.66 0-.403.02.29-.02.289-.014.316.027.067-.034.222-.101.444-.168.66.134-.438-.108.18-.142.241-.33.572.276-.269-.168.222-.033.04-.565.471-.188.202-.182.128-.377.229-.572.33.417-.209-.228.04-.282.054-.66.168.403 0-.29.02-.289-.02-.316-.014-.067.027a4.51 4.51 0 0 1-.659-.169c.437.135-.182-.107-.242-.14-.572-.33.269.275-.222-.169-.04-.034-.471-.565-.202-.188-.128-.182-.229-.377-.33-.572.209.417-.04-.229-.053-.283-.168-.659 0 .404-.02-.289.02-.29.013-.316-.027-.067.033-.222.1-.444.168-.66-.135.438.107-.181.141-.242.33-.572-.276.27.168-.222.034-.04.565-.47.189-.202.181-.127.376-.228.571-.33-.417.21.229-.04.283-.053.659-.168-.404 0 .289-.02 1.285-.034 2.354-1.043 2.354-2.355 0-1.258-1.07-2.388-2.354-2.354zM69.5 93.003c-1.97.103-3.386 1.52-3.496 3.496-.103 1.97 1.68 3.4 3.496 3.497 1.97.103 3.4-1.68 3.496-3.497.103-1.97-1.68-3.4-3.496-3.496-1.23-.065-2.253 1.075-2.253 2.253 0 1.282 1.03 2.19 2.253 2.254-.373-.07-.444-.077-.206-.02a1.074 1.074 0 0 1-.554-.321c.161.167.123.116-.11-.161-.038-.103-.083-.206-.121-.303.058.239.051.168-.02-.206.071-.373.078-.444.02-.206.051-.219.16-.406.321-.554-.167.161-.115.123.161-.11.103-.038.206-.083.303-.121-.238.058-.167.051.206-.02.373.071.444.078.206.02.219.051.406.16.554.322-.161-.168-.123-.116.11.16.038.104.083.207.121.303-.058-.238-.051-.167.02.206-.071.374-.078.445-.02.206-.051.22-.16.406-.321.554.167-.16.115-.122-.161.11-.103.038-.206.083-.303.122.238-.058.167-.052-.206.02 1.223-.065 2.253-.973 2.253-2.255 0-1.178-1.023-2.318-2.253-2.253z"/>
        <path fill="#8C939C" d="M53.5 16h14c1.364 0 2.5-1.136 2.5-2.5S68.864 11 67.5 11h-14a2.521 2.521 0 0 0-2.5 2.5c0 1.364 1.136 2.5 2.5 2.5zM86.5 16c1.364 0 2.5-1.136 2.5-2.5S87.864 11 86.5 11a2.521 2.521 0 0 0-2.5 2.5c0 1.364 1.136 2.5 2.5 2.5z"/>
    </g>
</svg>
